<svg version="1.1" xmlns="http://www.w3.org/2000/svg" xmlns:xlink="http://www.w3.org/1999/xlink" width="70" height="70" viewBox="0,0,70,70"><!-- Generated with https://ivantodorovich.github.io/odoo-icon --><defs><linearGradient x1="70" y1="0" x2="0" y2="70" gradientUnits="userSpaceOnUse" id="color-1"><stop offset="0" stop-color="#33bcae"/><stop offset="1" stop-color="#00897b"/></linearGradient></defs><g fill="none" fill-rule="nonzero" stroke="none" stroke-width="1" stroke-linecap="butt" stroke-linejoin="miter" stroke-miterlimit="10" stroke-dasharray="" stroke-dashoffset="0" font-family="none" font-weight="none" font-size="none" text-anchor="none" style=""><path d="M3.5,70c-1.933,0 -3.5,-1.567 -3.5,-3.5v-63c0,-1.933 1.567,-3.5 3.5,-3.5h63c1.933,0 3.5,1.567 3.5,3.5v63c0,1.933 -1.567,3.5 -3.5,3.5z" id="box" fill="url(#color-1)"/><path d="M65,1h-61c-1.95033,0 -3.2667,0.63396 -3.9491,1.90189c0.28378,-1.64806 1.72001,-2.90189 3.4491,-2.90189h63c1.72965,0 3.16627,1.25466 3.44938,2.90352c-0.69803,-1.26902 -2.34782,-1.90352 -4.94938,-1.90352z" id="topBoxShadow" fill="#ffffff" opacity="0.383"/><path d="M4,69h61c2.66667,0 4.33333,-1 5,-3v0.5c0,1.933 -1.567,3.5 -3.5,3.5h-63c-1.933,0 -3.5,-1.567 -3.5,-3.5c0,-0.1611 0,-0.32777 0,-0.5c0.66667,2 2,3 4,3z" id="bottomBoxShadow" fill="#000000" opacity="0.383"/><path d="M21.99172,11.70796c0.89709,-0.0055 1.79269,0.33263 2.47292,1.01308l10.9929,10.9929c-1.04668,1.37418 -1.75663,2.91532 -2.1398,4.5108l-8.48471,-8.48471c-0.68023,-0.68068 -1.79008,-0.67333 -2.4788,0.01517l-10.80671,10.80675c-0.68861,0.68872 -0.69562,1.79857 -0.01555,2.4788l16.27573,16.2777c-0.03068,0.01934 -0.06412,0.03981 -0.09408,0.05877c-1.14887,0.74253 -2.47224,1.94585 -3.43504,3.06078l-19.76761,-19.76568c-1.3603,-1.36042 -1.3459,-3.58012 0.03147,-4.95756l4.98892,-4.98892c1.36046,1.35951 3.57818,1.34665 4.95563,-0.03034c1.37756,-1.37744 1.39201,-3.59714 0.03147,-4.9576l4.98892,-4.98892c0.68872,-0.68868 1.58759,-1.03868 2.48468,-1.04247zM32.98105,31.21142c0.02332,3.65425 1.64481,7.21636 4.68519,9.36064l-7.5304,7.52847c-0.05108,0.02275 -0.10242,0.04399 -0.15285,0.06674l-16.37765,-16.37963l9.97591,-9.97587zM39.72767,41.79472c0.40418,0.24033 0.72835,0.45078 0.82496,0.54672c0.16453,0.16343 0.91821,0.42416 1.67537,0.58001c0.75713,0.15547 1.48487,0.31435 1.6166,0.35682c0.86489,0.2685 2.91631,0.01183 4.76554,-0.51338l-2.51209,2.51209c-3.09589,-0.01452 -6.4474,0.12191 -7.87922,0.39189c-1.03875,0.19585 -2.06871,0.43178 -3.06469,0.6976l4.57352,-4.57155zM25.2882,62.01049c-0.17822,-0.21462 -0.21007,-0.99325 -0.13272,-3.22527c0.12627,-3.63321 0.39686,-4.36955 2.30646,-6.2718c2.09358,-2.0855 5.07022,-3.53378 9.47481,-4.60988c3.16199,-0.77256 4.85647,-0.9512 8.959,-0.94452c3.47467,0.00379 5.41305,0.15926 7.21291,0.5711c4.35294,0.9964 6.87804,1.94323 9.06957,3.4008c1.86053,1.23745 2.90884,2.36224 3.62206,3.88631c0.51926,1.10966 0.56078,1.36478 0.65869,4.04705c0.07925,2.17188 0.04778,2.93106 -0.13044,3.14595c-0.20855,0.2514 -2.52298,0.28325 -20.52019,0.28325c-17.98894,0 -20.31171,-0.03034 -20.52,-0.28288zM42.83395,41.04521c-1.79558,-0.59089 -2.94111,-1.28807 -4.20684,-2.56036c-1.24772,-1.25421 -2.23692,-2.85393 -2.59195,-4.19183c-1.04854,-3.95089 -0.12362,-7.60594 2.60541,-10.29746c2.0797,-2.051 4.20809,-2.9173 7.16763,-2.9173c2.95802,0 5.096,0.86948 7.15042,2.90793c1.49253,1.48092 2.36865,3.0339 2.76327,4.89803c0.78515,3.70866 -0.15433,7.00883 -2.73263,9.60063c-1.28906,1.29573 -2.42681,1.98005 -4.27244,2.56965c-1.48957,0.47585 -4.42272,0.47122 -5.88286,-0.00758z" id="shadow" fill="#000000" opacity="0.3"/><path d="M24.46464,10.72104l10.9929,10.9929c-1.04668,1.37418 -1.75663,2.91532 -2.1398,4.5108l-1.6617,1.6617l0.54664,0.54663l6.38264,-6.38264c0.01833,-0.01833 0.03675,-0.03663 0.05525,-0.05487c2.0797,-2.051 4.20809,-2.9173 7.16763,-2.9173c2.95802,0 5.096,0.86948 7.15042,2.90793c1.49253,1.48092 2.36865,3.0339 2.76327,4.89803c0.78515,3.70866 -0.15433,7.00883 -2.73263,9.60063c-0.00932,0.00937 -0.01864,0.01871 -0.02795,0.02802l-8.45255,8.45255c0.4318,-0.00531 0.89186,-0.00721 1.38699,-0.0064c3.47467,0.00379 5.41305,0.15926 7.21291,0.5711c4.35294,0.9964 6.87804,1.94323 9.06957,3.4008c1.86053,1.23745 2.90884,2.36224 3.62206,3.88631c0.51926,1.10966 0.56078,1.36478 0.65869,4.04705c0.07925,2.17188 0.04778,2.93106 -0.13044,3.14595c-0.00187,0.00226 -0.00392,0.0045 -0.00614,0.00672l-9.98305,9.98305h-52.83935c-1.933,0 -3.5,-1.567 -3.5,-3.5l0,-36.24363l19.50738,-19.50738c0.68872,-0.68868 1.58759,-1.03868 2.48468,-1.04247l-0.00034,0.00144c0.89709,-0.0055 1.79269,0.33263 2.47292,1.01308z" id="flatShadow" fill="#000000" opacity="0.324"/><path d="M21.99172,9.70796c0.89709,-0.0055 1.79269,0.33263 2.47292,1.01308l10.9929,10.9929c-1.04668,1.37418 -1.75663,2.91532 -2.1398,4.5108l-8.48471,-8.48471c-0.68023,-0.68068 -1.79008,-0.67333 -2.4788,0.01517l-10.80671,10.80675c-0.68861,0.68872 -0.69562,1.79857 -0.01555,2.4788l16.27573,16.2777c-0.03068,0.01934 -0.06412,0.03981 -0.09408,0.05877c-1.14887,0.74253 -2.47224,1.94585 -3.43504,3.06078l-19.76761,-19.76568c-1.3603,-1.36042 -1.3459,-3.58012 0.03147,-4.95756l4.98892,-4.98892c1.36046,1.35951 3.57818,1.34665 4.95563,-0.03034c1.37756,-1.37744 1.39201,-3.59714 0.03147,-4.9576l4.98892,-4.98892c0.68872,-0.68868 1.58759,-1.03868 2.48468,-1.04247zM32.98105,29.21142c0.02332,3.65425 1.64481,7.21636 4.68519,9.36064l-7.5304,7.52847c-0.05108,0.02275 -0.10242,0.04399 -0.15285,0.06674l-16.37765,-16.37963l9.97591,-9.97587zM39.72767,39.79472c0.40418,0.24033 0.72835,0.45078 0.82496,0.54672c0.16453,0.16343 0.91821,0.42416 1.67537,0.58001c0.75713,0.15547 1.48487,0.31435 1.6166,0.35682c0.86489,0.2685 2.91631,0.01183 4.76554,-0.51338l-2.51209,2.51209c-3.09589,-0.01452 -6.4474,0.12191 -7.87922,0.39189c-1.03875,0.19585 -2.06871,0.43178 -3.06469,0.6976l4.57352,-4.57155zM25.2882,60.01049c-0.17822,-0.21462 -0.21007,-0.99325 -0.13272,-3.22527c0.12627,-3.63321 0.39686,-4.36955 2.30646,-6.2718c2.09358,-2.0855 5.07022,-3.53378 9.47481,-4.60988c3.16199,-0.77256 4.85647,-0.9512 8.959,-0.94452c3.47467,0.00379 5.41305,0.15926 7.21291,0.5711c4.35294,0.9964 6.87804,1.94323 9.06957,3.4008c1.86053,1.23745 2.90884,2.36224 3.62206,3.88631c0.51926,1.10966 0.56078,1.36478 0.65869,4.04705c0.07925,2.17188 0.04778,2.93106 -0.13044,3.14595c-0.20855,0.2514 -2.52298,0.28325 -20.52019,0.28325c-17.98894,0 -20.31171,-0.03034 -20.52,-0.28288zM42.83395,39.04521c-1.79558,-0.59089 -2.94111,-1.28807 -4.20684,-2.56036c-1.24772,-1.25421 -2.23692,-2.85393 -2.59195,-4.19183c-1.04854,-3.95089 -0.12362,-7.60594 2.60541,-10.29746c2.0797,-2.051 4.20809,-2.9173 7.16763,-2.9173c2.95802,0 5.096,0.86948 7.15042,2.90793c1.49253,1.48092 2.36865,3.0339 2.76327,4.89803c0.78515,3.70866 -0.15433,7.00883 -2.73263,9.60063c-1.28906,1.29573 -2.42681,1.98005 -4.27244,2.56965c-1.48957,0.47585 -4.42272,0.47122 -5.88286,-0.00758z" id="icon" fill="#ffffff"/></g></svg>
