<?xml version="1.0" encoding="UTF-8" standalone="no"?>
<!-- Created with Inkscape (http://www.inkscape.org/) -->

<svg
   xmlns:dc="http://purl.org/dc/elements/1.1/"
   xmlns:cc="http://creativecommons.org/ns#"
   xmlns:rdf="http://www.w3.org/1999/02/22-rdf-syntax-ns#"
   xmlns:svg="http://www.w3.org/2000/svg"
   xmlns="http://www.w3.org/2000/svg"
   xmlns:sodipodi="http://sodipodi.sourceforge.net/DTD/sodipodi-0.dtd"
   xmlns:inkscape="http://www.inkscape.org/namespaces/inkscape"
   width="100"
   height="100"
   viewBox="0 0 99.999997 99.999997"
   id="svg2"
   version="1.1"
   inkscape:version="0.91 r13725"
   sodipodi:docname="icon.svg"
   inkscape:export-filename="/home/jllopis/Documentos/devel/docker/odoo-grupoesoc/addons/odoo-grupoesoc-addons/event_seats_per_regsitration/static/description/icon.png"
   inkscape:export-xdpi="90"
   inkscape:export-ydpi="90">
  <defs
     id="defs4" />
  <sodipodi:namedview
     id="base"
     pagecolor="#ffffff"
     bordercolor="#666666"
     borderopacity="1.0"
     inkscape:pageopacity="0.0"
     inkscape:pageshadow="2"
     inkscape:zoom="3.959798"
     inkscape:cx="37.245649"
     inkscape:cy="56.110184"
     inkscape:document-units="px"
     inkscape:current-layer="layer1"
     showgrid="false"
     units="px"
     inkscape:window-width="1280"
     inkscape:window-height="958"
     inkscape:window-x="0"
     inkscape:window-y="27"
     inkscape:window-maximized="1" />
  <metadata
     id="metadata7">
    <rdf:RDF>
      <cc:Work
         rdf:about="">
        <dc:format>image/svg+xml</dc:format>
        <dc:type
           rdf:resource="http://purl.org/dc/dcmitype/StillImage" />
        <dc:title />
      </cc:Work>
    </rdf:RDF>
  </metadata>
  <g
     inkscape:label="Capa 1"
     inkscape:groupmode="layer"
     id="layer1"
     transform="translate(0,-952.36225)">
    <g
       style="font-style:normal;font-weight:normal;font-size:92.3262558px;line-height:125%;font-family:Sans;text-align:center;letter-spacing:0px;word-spacing:0px;text-anchor:middle;fill:#c87137;fill-opacity:1;stroke:none;stroke-width:1px;stroke-linecap:butt;stroke-linejoin:miter;stroke-opacity:1"
       id="text3336">
      <path
         d="m 31.091507,1002.3623 c -2.67911,-3.86413 -4.173229,-8.50105 -4.173229,-13.18949 0,-1.13347 0.103042,-2.26694 0.257606,-3.40041 -2.215418,0.77282 -4.482357,1.18499 -6.852339,1.18499 -6.955382,0 -12.313602,-4.37931 -13.3955504,-4.37931 -6.54321117,0 -6.38864712,14.0138 -6.38864712,18.18702 0,5.7189 4.84300672,8.1919 9.99514152,8.1919 l 6.903861,0 c 3.45193,-4.1217 8.294937,-6.4402 13.653157,-6.5947 z m 55.179364,32.8191 c 0,-11.6439 -2.730632,-29.5218 -17.826387,-29.5218 -1.751726,0 -8.140373,7.1615 -18.444642,7.1615 -10.30427,0 -16.692917,-7.1615 -18.444643,-7.1615 -15.095755,0 -17.826386,17.8779 -17.826386,29.5218 0,8.3464 5.512784,13.344 13.7562,13.344 l 45.029658,0 c 8.243415,0 13.7562,-4.9976 13.7562,-13.344 z M 33.51301,969.38861 c 0,-7.26451 -5.924955,-13.18946 -13.189465,-13.18946 -7.26451,0 -13.189465,5.92495 -13.189465,13.18946 0,7.26451 5.924955,13.18947 13.189465,13.18947 7.26451,0 13.189465,-5.92496 13.189465,-13.18947 z m 36.271029,19.7842 c 0,-10.92253 -8.861672,-19.7842 -19.784197,-19.7842 -10.922526,0 -19.784198,8.86167 -19.784198,19.7842 0,10.92249 8.861672,19.78419 19.784198,19.78419 10.922525,0 19.784197,-8.8617 19.784197,-19.78419 z m 29.676297,11.59229 c 0,-4.17322 0.154564,-18.18702 -6.388647,-18.18702 -1.081949,0 -6.440169,4.37931 -13.395551,4.37931 -2.369982,0 -4.636921,-0.41217 -6.852339,-1.18499 0.154564,1.13347 0.257607,2.26694 0.257607,3.40041 0,4.68844 -1.494119,9.32536 -4.17323,13.18949 5.358221,0.1545 10.201227,2.473 13.653158,6.5947 l 6.90386,0 c 5.152135,0 9.995142,-2.473 9.995142,-8.1919 z m -6.594733,-31.37649 c 0,-7.26451 -5.924955,-13.18946 -13.189465,-13.18946 -7.26451,0 -13.189465,5.92495 -13.189465,13.18946 0,7.26451 5.924955,13.18947 13.189465,13.18947 7.26451,0 13.189465,-5.92496 13.189465,-13.18947 z"
         style=""
         id="path3382" />
    </g>
    <text
       xml:space="preserve"
       style="font-style:normal;font-weight:normal;font-size:30px;line-height:125%;font-family:Sans;text-align:center;letter-spacing:0px;word-spacing:0px;text-anchor:middle;fill:#000000;fill-opacity:1;stroke:none;stroke-width:1px;stroke-linecap:butt;stroke-linejoin:miter;stroke-opacity:1"
       x="85.610428"
       y="1020.0374"
       id="text3344"
       sodipodi:linespacing="125%"><tspan
         sodipodi:role="line"
         id="tspan3346"
         x="85.610428"
         y="1020.0374" /></text>
    <g
       style="font-style:normal;font-weight:normal;font-size:45.70928955px;line-height:125%;font-family:Sans;text-align:center;letter-spacing:0px;word-spacing:0px;text-anchor:middle;fill:#008000;fill-opacity:1;stroke:#ffffff;stroke-width:1px;stroke-linecap:butt;stroke-linejoin:miter;stroke-opacity:1"
       id="text3340">
      <path
         d="m 80.829651,1015.7163 0,13.5986 13.598633,0 0,4.1504 -13.598633,0 0,13.5987 -4.101563,0 0,-13.5987 -13.598632,0 0,-4.1504 13.598632,0 0,-13.5986 4.101563,0 z"
         style="font-size:50px"
         id="path3385" />
    </g>
    <g
       style="font-style:normal;font-weight:normal;font-size:30px;line-height:125%;font-family:Sans;text-align:center;letter-spacing:0px;word-spacing:0px;text-anchor:middle;fill:#ff0000;fill-opacity:1;stroke:#ffffff;stroke-width:1px;stroke-linecap:butt;stroke-linejoin:miter;stroke-opacity:1"
       id="text3348">
      <path
         d="m 4.5184612,1029.3882 13.1591798,0 0,4.0039 -13.1591798,0 0,-4.0039 z"
         style="font-size:50px;fill:#ff0000;stroke:#ffffff"
         id="path3388" />
    </g>
  </g>
</svg>
